<svg width="104" height="104" viewBox="0 0 104 104" fill="none" xmlns="http://www.w3.org/2000/svg">
<g filter="url(#filter0_d_230_71)">
<rect x="20" y="10" width="64" height="64" rx="10" fill="white"/>
</g>
<path d="M61.6602 62H42.3235C42.0027 61.9958 41.6962 61.8654 41.4693 61.6367C41.2424 61.408 41.1131 61.099 41.1089 60.7756C41.1089 60.4509 41.2368 60.1395 41.4646 59.9099C41.6924 59.6803 42.0014 59.5513 42.3235 59.5513H61.6602C61.9824 59.5513 62.2913 59.6803 62.5191 59.9099C62.7469 60.1395 62.8749 60.4509 62.8749 60.7756C62.8707 61.099 62.7413 61.408 62.5145 61.6367C62.2876 61.8654 61.9811 61.9958 61.6602 62Z" fill="#1D3557"/>
<path d="M67.4093 53.0215H36.6389C36.3168 53.0215 36.0079 52.8925 35.7801 52.6629C35.5523 52.4333 35.4243 52.1218 35.4243 51.7971C35.4285 51.4737 35.5578 51.1647 35.7847 50.936C36.0116 50.7073 36.3181 50.577 36.6389 50.5728H67.4093C67.7314 50.5728 68.0404 50.7017 68.2681 50.9314C68.4959 51.161 68.6239 51.4724 68.6239 51.7971C68.6261 51.9585 68.5961 52.1187 68.5359 52.2683C68.4756 52.4178 68.3862 52.5536 68.273 52.6678C68.1598 52.7819 68.025 52.872 67.8767 52.9327C67.7283 52.9935 67.5694 53.0237 67.4093 53.0215V53.0215Z" fill="#1D3557"/>
<path d="M67.4093 36.1579L55.4736 24.4367C54.5441 23.5174 53.2939 23.0024 51.9917 23.0024C50.6895 23.0024 49.4393 23.5174 48.5098 24.4367L36.5741 36.1579C35.9977 36.7134 35.6024 37.4324 35.4404 38.2195C35.2785 39.0067 35.3576 39.8248 35.6672 40.5656C35.9576 41.3156 36.4684 41.9584 37.1312 42.4077C37.794 42.857 38.5772 43.0914 39.3759 43.0796H64.6237C65.4214 43.0869 66.2026 42.8506 66.8645 42.4019C67.5265 41.9531 68.0382 41.313 68.3324 40.5656C68.6401 39.8232 68.7166 39.0041 68.5517 38.2168C68.3869 37.4296 67.9884 36.7116 67.4093 36.1579ZM66.0813 39.6351C65.9595 39.9251 65.7571 40.1734 65.4985 40.3501C65.2399 40.5268 64.9361 40.6243 64.6237 40.6309H39.3759C39.0605 40.6376 38.7509 40.5453 38.4898 40.3669C38.2287 40.1886 38.029 39.9328 37.9183 39.6351C37.8067 39.3426 37.7809 39.0239 37.8441 38.7171C37.9073 38.4102 38.0567 38.1282 38.2746 37.9047L50.2103 26.1998C50.684 25.7245 51.3234 25.455 51.9917 25.4488C52.3257 25.448 52.6566 25.5139 52.9651 25.6428C53.2737 25.7717 53.5538 25.961 53.7894 26.1998L65.7088 37.9047C65.9264 38.125 66.077 38.4033 66.143 38.707C66.2089 39.0106 66.1875 39.3269 66.0813 39.6188V39.6351Z" fill="#E63946"/>
<defs>
<filter id="filter0_d_230_71" x="0" y="0" width="104" height="104" filterUnits="userSpaceOnUse" color-interpolation-filters="sRGB">
<feFlood flood-opacity="0" result="BackgroundImageFix"/>
<feColorMatrix in="SourceAlpha" type="matrix" values="0 0 0 0 0 0 0 0 0 0 0 0 0 0 0 0 0 0 127 0" result="hardAlpha"/>
<feOffset dy="10"/>
<feGaussianBlur stdDeviation="10"/>
<feComposite in2="hardAlpha" operator="out"/>
<feColorMatrix type="matrix" values="0 0 0 0 0.1575 0 0 0 0 0.3486 0 0 0 0 0.525 0 0 0 0.16 0"/>
<feBlend mode="normal" in2="BackgroundImageFix" result="effect1_dropShadow_230_71"/>
<feBlend mode="normal" in="SourceGraphic" in2="effect1_dropShadow_230_71" result="shape"/>
</filter>
</defs>
</svg>
