<svg width="104" height="104" viewBox="0 0 104 104" fill="none" xmlns="http://www.w3.org/2000/svg">
<g filter="url(#filter0_d_230_65)">
<rect x="20" y="10" width="64" height="64" rx="10" fill="white"/>
</g>
<g clip-path="url(#clip0_230_65)">
<path d="M38.1117 39.5815L35.7788 39.326C36.2093 35.1133 38.1579 31.2135 41.2471 28.3821C44.3364 25.5506 48.3463 23.9891 52.5001 24.0001C56.6555 23.9887 60.6674 25.5497 63.7591 28.3809C66.8509 31.212 68.8027 35.112 69.2369 39.326L66.9041 39.5815C66.5317 35.9545 64.8522 32.5977 62.191 30.1614C59.5298 27.7251 56.0764 26.3828 52.5001 26.3947C48.9254 26.3832 45.4739 27.726 42.8153 30.1626C40.1566 32.5992 38.4804 35.9559 38.1117 39.5815Z" fill="#E63946"/>
<path d="M58.5124 58.7707L58.1992 56.392C64.9629 55.482 65.0411 49.655 65.0411 49.4155H67.3896C67.3165 51.8215 66.3664 54.1133 64.7249 55.8432C63.0833 57.5732 60.8683 58.617 58.5124 58.7707Z" fill="#E63946"/>
<path d="M56.2576 55.019H52.9854C51.6365 55.019 50.543 56.1341 50.543 57.5095V57.5255C50.543 58.9009 51.6365 60.0159 52.9854 60.0159H56.2576C57.6065 60.0159 58.7 58.9009 58.7 57.5255V57.5095C58.7 56.1341 57.6065 55.019 56.2576 55.019Z" fill="#1D3557"/>
<path d="M72.7131 40.6829C72.7131 38.0642 70.6312 35.9414 68.0631 35.9414C65.495 35.9414 63.4131 38.0642 63.4131 40.6829V46.5578C63.4131 49.1765 65.495 51.2993 68.0631 51.2993C70.6312 51.2993 72.7131 49.1765 72.7131 46.5578V40.6829Z" fill="#1D3557"/>
<path d="M41.5876 40.6829C41.5876 38.0642 39.5057 35.9414 36.9376 35.9414C34.3695 35.9414 32.2876 38.0642 32.2876 40.6829V46.5578C32.2876 49.1765 34.3695 51.2993 36.9376 51.2993C39.5057 51.2993 41.5876 49.1765 41.5876 46.5578V40.6829Z" fill="#1D3557"/>
</g>
<defs>
<filter id="filter0_d_230_65" x="0" y="0" width="104" height="104" filterUnits="userSpaceOnUse" color-interpolation-filters="sRGB">
<feFlood flood-opacity="0" result="BackgroundImageFix"/>
<feColorMatrix in="SourceAlpha" type="matrix" values="0 0 0 0 0 0 0 0 0 0 0 0 0 0 0 0 0 0 127 0" result="hardAlpha"/>
<feOffset dy="10"/>
<feGaussianBlur stdDeviation="10"/>
<feComposite in2="hardAlpha" operator="out"/>
<feColorMatrix type="matrix" values="0 0 0 0 0.1575 0 0 0 0 0.3486 0 0 0 0 0.525 0 0 0 0.16 0"/>
<feBlend mode="normal" in2="BackgroundImageFix" result="effect1_dropShadow_230_65"/>
<feBlend mode="normal" in="SourceGraphic" in2="effect1_dropShadow_230_65" result="shape"/>
</filter>
<clipPath id="clip0_230_65">
<rect width="41" height="36" fill="white" transform="translate(32 24)"/>
</clipPath>
</defs>
</svg>
