<svg width="104" height="104" viewBox="0 0 104 104" fill="none" xmlns="http://www.w3.org/2000/svg">
<g filter="url(#filter0_d_230_57)">
<rect x="20" y="10" width="64" height="64" rx="10" fill="white"/>
</g>
<path d="M60.0821 30.4438C59.905 30.4435 59.7316 30.3929 59.5821 30.2978C58.158 29.3878 56.5804 28.7441 54.9261 28.3981C54.6837 28.347 54.4715 28.2018 54.3362 27.9943C54.2009 27.7868 54.1536 27.5341 54.2046 27.2917C54.2557 27.0494 54.4009 26.8372 54.6084 26.7019C54.816 26.5666 55.0687 26.5193 55.3111 26.5703C57.1852 26.9615 58.9726 27.6898 60.5861 28.72C60.757 28.8283 60.8882 28.9891 60.9598 29.1783C61.0314 29.3675 61.0397 29.5749 60.9833 29.7692C60.9269 29.9635 60.8089 30.1342 60.6471 30.2557C60.4853 30.3771 60.2885 30.4428 60.0861 30.4428" fill="#E63946"/>
<path d="M64.7138 51.2727C64.5463 51.2725 64.382 51.2273 64.238 51.1419C64.094 51.0564 63.9757 50.9338 63.8953 50.787C63.815 50.6401 63.7756 50.4743 63.7813 50.307C63.787 50.1397 63.8376 49.977 63.9278 49.8359C64.8889 48.3377 65.5539 46.6692 65.8868 44.9206C65.9333 44.6773 66.0746 44.4625 66.2796 44.3234C66.4846 44.1842 66.7364 44.1322 66.9798 44.1787C67.2231 44.2253 67.438 44.3666 67.5771 44.5715C67.7163 44.7765 67.7683 45.0283 67.7218 45.2716C67.3432 47.2525 66.5901 49.1431 65.5028 50.8417C65.4184 50.9741 65.3019 51.083 65.1641 51.1584C65.0264 51.2337 64.8718 51.273 64.7148 51.2727" fill="#E63946"/>
<path d="M48.9158 57.9265C48.8516 57.9267 48.7876 57.92 48.7248 57.9065C46.7078 57.4899 44.7913 56.684 43.0828 55.5339C42.877 55.3958 42.7345 55.1817 42.6866 54.9386C42.6387 54.6955 42.6893 54.4433 42.8273 54.2376C42.9654 54.0318 43.1795 53.8893 43.4227 53.8414C43.6658 53.7935 43.918 53.8441 44.1238 53.9821C45.6316 54.9975 47.3228 55.7093 49.1028 56.0778C49.3285 56.1252 49.5287 56.2545 49.6647 56.4407C49.8008 56.6269 49.8632 56.8568 49.8398 57.0862C49.8165 57.3156 49.7091 57.5282 49.5383 57.6832C49.3675 57.8382 49.1455 57.9245 48.9148 57.9255" fill="#E63946"/>
<path d="M37.2981 39.8272C37.2284 39.8272 37.159 39.8191 37.0911 39.8032C36.8504 39.748 36.6414 39.5994 36.5101 39.3902C36.3789 39.1809 36.3361 38.9282 36.3911 38.6874C36.8211 36.7783 37.6009 34.9654 38.6911 33.3402C38.7582 33.2358 38.8455 33.1459 38.9478 33.0756C39.0501 33.0053 39.1653 32.9561 39.2868 32.9309C39.4084 32.9057 39.5337 32.9049 39.6555 32.9286C39.7773 32.9524 39.8932 33.0002 39.9963 33.0692C40.0995 33.1383 40.1878 33.2271 40.2562 33.3307C40.3246 33.4343 40.3716 33.5504 40.3946 33.6724C40.4176 33.7943 40.416 33.9196 40.39 34.0409C40.364 34.1623 40.314 34.2772 40.2431 34.379C39.2815 35.8138 38.593 37.4137 38.2121 39.0983C38.1658 39.3049 38.0506 39.4896 37.8854 39.6221C37.7202 39.7546 37.5149 39.8269 37.3031 39.8272" fill="#E63946"/>
<path d="M39.2868 51.2727C39.1298 51.273 38.9752 51.2337 38.8375 51.1584C38.6997 51.083 38.5832 50.9741 38.4988 50.8417C37.4115 49.1431 36.6584 47.2525 36.2798 45.2716C36.2333 45.0283 36.2853 44.7765 36.4245 44.5715C36.5636 44.3666 36.7785 44.2253 37.0218 44.1787C37.2652 44.1322 37.517 44.1842 37.722 44.3234C37.927 44.4625 38.0683 44.6773 38.1148 44.9206C38.4477 46.6692 39.1127 48.3377 40.0738 49.8359C40.164 49.977 40.2146 50.1397 40.2203 50.307C40.226 50.4743 40.1866 50.6401 40.1063 50.787C40.0259 50.9338 39.9076 51.0564 39.7636 51.1419C39.6196 51.2273 39.4553 51.2725 39.2878 51.2727" fill="#E63946"/>
<path d="M55.0841 57.9266C54.8535 57.9255 54.6314 57.8392 54.4606 57.6843C54.2898 57.5293 54.1824 57.3166 54.1591 57.0872C54.1358 56.8578 54.1981 56.6279 54.3342 56.4417C54.4703 56.2556 54.6704 56.1263 54.8961 56.0789C56.6764 55.7089 58.3676 54.9957 59.8751 53.9792C59.977 53.9108 60.0914 53.8632 60.2117 53.8391C60.332 53.8149 60.4559 53.8147 60.5763 53.8384C60.6966 53.8622 60.8112 53.9094 60.9133 53.9773C61.0155 54.0453 61.1032 54.1327 61.1716 54.2346C61.2399 54.3365 61.2876 54.4509 61.3117 54.5712C61.3359 54.6915 61.3361 54.8153 61.3124 54.9357C61.2886 55.0561 61.2414 55.1706 61.1734 55.2727C61.1054 55.3749 61.018 55.4626 60.9161 55.5309C59.2074 56.6807 57.291 57.4866 55.2741 57.9036C55.2113 57.917 55.1473 57.9237 55.0831 57.9236" fill="#E63946"/>
<path d="M66.7019 39.8272C66.4901 39.8269 66.2848 39.7546 66.1196 39.6221C65.9544 39.4896 65.8392 39.3049 65.7929 39.0983C65.4119 37.4137 64.7234 35.8138 63.7619 34.379C63.6909 34.2772 63.641 34.1623 63.615 34.0409C63.589 33.9196 63.5874 33.7943 63.6104 33.6724C63.6334 33.5504 63.6804 33.4343 63.7488 33.3307C63.8172 33.2271 63.9055 33.1383 64.0086 33.0692C64.1118 33.0002 64.2276 32.9524 64.3495 32.9286C64.4713 32.9049 64.5966 32.9057 64.7181 32.9309C64.8396 32.9561 64.9549 33.0053 65.0572 33.0756C65.1595 33.1459 65.2467 33.2358 65.3139 33.3402C66.4041 34.9654 67.1839 36.7783 67.6139 38.6874C67.6689 38.9282 67.6261 39.1809 67.4948 39.3902C67.3636 39.5994 67.1546 39.748 66.9139 39.8032C66.846 39.8191 66.7766 39.8272 66.7069 39.8272" fill="#E63946"/>
<path d="M43.9181 30.4436C43.7157 30.4437 43.5188 30.378 43.357 30.2565C43.1952 30.135 43.0773 29.9643 43.0209 29.77C42.9645 29.5757 42.9727 29.3684 43.0444 29.1792C43.116 28.99 43.2471 28.8291 43.4181 28.7209C45.0316 27.6907 46.819 26.9623 48.6931 26.5712C48.816 26.5376 48.9445 26.5294 49.0706 26.5473C49.1968 26.5652 49.318 26.6087 49.4267 26.6752C49.5354 26.7416 49.6294 26.8296 49.7029 26.9337C49.7763 27.0379 49.8277 27.1559 49.8538 27.2806C49.8799 27.4053 49.8802 27.5341 49.8547 27.6589C49.8292 27.7837 49.7784 27.902 49.7054 28.0065C49.6325 28.111 49.5389 28.1994 49.4305 28.2664C49.3221 28.3334 49.2011 28.3774 49.0751 28.3959C47.4208 28.7419 45.8431 29.3856 44.4191 30.2956C44.2696 30.3907 44.0962 30.4414 43.9191 30.4416" fill="#E63946"/>
<path d="M55.116 28.421C54.8795 28.4208 54.6518 28.3307 54.4792 28.1691C54.3065 28.0074 54.2017 27.7862 54.186 27.5502L53.936 23.8677H50.063L49.813 27.5502C49.7899 27.7924 49.6732 28.0161 49.4877 28.1735C49.3022 28.331 49.0625 28.4099 48.8197 28.3933C48.5769 28.3768 48.3502 28.2661 48.1877 28.0849C48.0253 27.9037 47.94 27.6663 47.95 27.4232L48.26 22.8709C48.2757 22.6347 48.3807 22.4134 48.5535 22.2517C48.7264 22.09 48.9543 22 49.191 22H54.807C55.0446 21.9987 55.2737 22.0881 55.4477 22.2499C55.6216 22.4118 55.7272 22.6339 55.743 22.8709L56.053 27.4232C56.062 27.5459 56.0466 27.6692 56.0078 27.7859C55.969 27.9027 55.9075 28.0106 55.8268 28.1035C55.7462 28.1964 55.648 28.2725 55.5378 28.3273C55.4277 28.3821 55.3078 28.4147 55.185 28.423H55.12" fill="#E63946"/>
<path d="M54.8088 61.9947H49.1928C48.956 61.9947 48.728 61.9048 48.5549 61.7431C48.3819 61.5814 48.2768 61.36 48.2608 61.1238L47.9828 57.0544C47.9709 56.9301 47.984 56.8047 48.0213 56.6856C48.0587 56.5664 48.1196 56.456 48.2004 56.3608C48.2812 56.2656 48.3803 56.1876 48.4918 56.1314C48.6033 56.0751 48.7249 56.0418 48.8495 56.0334C48.9741 56.025 49.0991 56.0416 49.2171 56.0823C49.3352 56.123 49.4439 56.187 49.5367 56.2705C49.6296 56.3539 49.7048 56.4551 49.7579 56.5681C49.811 56.6811 49.8409 56.8037 49.8458 56.9284L50.0628 60.1279H53.9348L54.1528 56.9284C54.1733 56.6824 54.2888 56.454 54.475 56.2917C54.6611 56.1295 54.9032 56.0462 55.1498 56.0595C55.2726 56.0679 55.3925 56.1004 55.5027 56.1553C55.6129 56.2101 55.7112 56.2861 55.792 56.379C55.8727 56.4719 55.9343 56.5798 55.9732 56.6966C56.0122 56.8134 56.0276 56.9366 56.0188 57.0594L55.7408 61.1288C55.7251 61.3648 55.6203 61.586 55.4476 61.7477C55.275 61.9093 55.0473 61.9994 54.8108 61.9997" fill="#E63946"/>
<path d="M39.4629 34.7942C39.3302 34.7939 39.199 34.7652 39.0783 34.71C38.9575 34.6548 38.85 34.5745 38.7629 34.4743L35.8279 31.1178C35.6725 30.9392 35.5905 30.7083 35.5987 30.4717C35.6069 30.2351 35.7045 30.0104 35.8719 29.843L39.8429 25.8715C40.0105 25.7047 40.2349 25.6074 40.4713 25.5992C40.7076 25.591 40.9383 25.6726 41.1169 25.8276L44.5309 28.8081C44.7178 28.9709 44.8323 29.2013 44.8493 29.4485C44.8662 29.6957 44.7843 29.9396 44.6214 30.1264C44.4586 30.3132 44.2282 30.4277 43.9809 30.4447C43.7337 30.4617 43.4898 30.3797 43.3029 30.2169L40.5459 27.8083L37.8089 30.5458L40.1649 33.2454C40.2826 33.3803 40.359 33.5461 40.3851 33.7232C40.4112 33.9002 40.3859 34.0811 40.3122 34.2441C40.2384 34.4072 40.1193 34.5457 39.9691 34.643C39.8189 34.7403 39.6439 34.7925 39.4649 34.7932" fill="#E63946"/>
<path d="M63.4972 58.3966C63.2715 58.3967 63.0533 58.315 62.8832 58.1666L59.7832 55.467C59.6905 55.3862 59.6146 55.288 59.5599 55.1779C59.5051 55.0679 59.4726 54.9481 59.4641 54.8254C59.4557 54.7028 59.4715 54.5797 59.5106 54.4631C59.5497 54.3466 59.6115 54.2389 59.6922 54.1462C59.773 54.0535 59.8712 53.9776 59.9813 53.9229C60.0914 53.8681 60.2112 53.8356 60.3339 53.8272C60.4565 53.8187 60.5797 53.8345 60.6962 53.8736C60.8128 53.9128 60.9205 53.9745 61.0132 54.0552L63.4572 56.1869L66.1932 53.4483L64.0132 50.9487C63.8504 50.7619 63.7684 50.518 63.7854 50.2708C63.8024 50.0236 63.9169 49.7932 64.1037 49.6304C64.2906 49.4676 64.5344 49.3856 64.7817 49.4026C65.029 49.4196 65.2594 49.534 65.4222 49.7209L68.1752 52.8744C68.3307 53.0529 68.4126 53.2838 68.4044 53.5205C68.3963 53.7571 68.2986 53.9818 68.1312 54.1492L64.1602 58.1196C64.0737 58.2065 63.9709 58.2755 63.8576 58.3225C63.7443 58.3695 63.6229 58.3937 63.5002 58.3936" fill="#E63946"/>
<path d="M37.2 46.0302H37.135L32.871 45.7423C32.6343 45.726 32.4126 45.6204 32.2509 45.4468C32.0891 45.2732 31.9994 45.0447 32 44.8074V39.1913C31.9997 38.9544 32.0896 38.7263 32.2513 38.5532C32.4131 38.3802 32.6346 38.2751 32.871 38.2594L37.234 37.9594C37.4812 37.9426 37.7249 38.0246 37.9116 38.1875C38.0983 38.3503 38.2127 38.5807 38.2295 38.8278C38.2463 39.075 38.1643 39.3187 38.0014 39.5053C37.8386 39.692 37.6082 39.8063 37.361 39.8232L33.869 40.0611V43.9305L37.26 44.1625C37.5077 44.1705 37.7421 44.2765 37.9117 44.4572C38.0812 44.638 38.172 44.8787 38.164 45.1264C38.156 45.374 38.05 45.6084 37.8692 45.7779C37.6884 45.9474 37.4477 46.0382 37.2 46.0302" fill="#E63946"/>
<path d="M66.8032 46.0302C66.5607 46.0304 66.3276 45.9363 66.1532 45.7679C65.9788 45.5994 65.8768 45.3697 65.8688 45.1273C65.8607 44.885 65.9473 44.649 66.1101 44.4693C66.2729 44.2897 66.4992 44.1803 66.7412 44.1645L70.1322 43.9325V40.0631L66.6402 39.8251C66.393 39.8083 66.1626 39.6939 65.9998 39.5073C65.8369 39.3206 65.7549 39.0769 65.7717 38.8298C65.7885 38.5826 65.9029 38.3523 66.0896 38.1894C66.2763 38.0266 66.52 37.9446 66.7672 37.9614L71.1302 38.2613C71.3666 38.2771 71.5881 38.3821 71.7499 38.5552C71.9116 38.7282 72.0015 38.9563 72.0012 39.1932V44.8094C72.001 45.0461 71.911 45.2739 71.7493 45.4469C71.5877 45.6198 71.3664 45.725 71.1302 45.7412L66.8682 46.0302H66.8032" fill="#E63946"/>
<path d="M40.5029 58.3965C40.3803 58.3966 40.2588 58.3724 40.1456 58.3254C40.0323 58.2784 39.9294 58.2094 39.8429 58.1225L35.8719 54.1531C35.7045 53.9857 35.6069 53.761 35.5987 53.5244C35.5905 53.2878 35.6725 53.0569 35.8279 52.8783L38.5809 49.7248C38.7438 49.5379 38.9742 49.4235 39.2214 49.4065C39.4687 49.3895 39.7126 49.4715 39.8994 49.6343C40.0863 49.7971 40.2008 50.0275 40.2178 50.2747C40.2347 50.5219 40.1528 50.7658 39.9899 50.9526L37.8099 53.4522L40.5459 56.1868L42.9899 54.0551C43.1768 53.8923 43.4207 53.8104 43.6679 53.8273C43.9152 53.8443 44.1456 53.9588 44.3084 54.1456C44.4713 54.3324 44.5532 54.5763 44.5363 54.8235C44.5193 55.0707 44.4048 55.3011 44.2179 55.4639L41.1179 58.1635C40.9478 58.3119 40.7297 58.3936 40.5039 58.3935" fill="#E63946"/>
<path d="M64.537 34.7939C64.358 34.7932 64.183 34.741 64.0328 34.6437C63.8826 34.5463 63.7635 34.4079 63.6898 34.2448C63.616 34.0817 63.5907 33.9009 63.6168 33.7239C63.6429 33.5468 63.7193 33.381 63.837 33.2461L66.193 30.5465L63.451 27.8079L60.695 30.2076C60.6053 30.301 60.4972 30.3748 60.3776 30.4242C60.2579 30.4737 60.1292 30.4977 59.9998 30.4948C59.8703 30.4918 59.7429 30.462 59.6255 30.4072C59.5082 30.3524 59.4036 30.2738 59.3183 30.1764C59.2329 30.079 59.1688 29.9649 59.13 29.8414C59.0911 29.7179 59.0784 29.5876 59.0925 29.4589C59.1067 29.3302 59.1475 29.2059 59.2123 29.0938C59.2771 28.9817 59.3645 28.8843 59.469 28.8078L62.883 25.8302C63.0616 25.6753 63.2923 25.5937 63.5286 25.6019C63.765 25.61 63.9895 25.7073 64.157 25.8742L68.128 29.8456C68.2944 30.013 68.3913 30.2372 68.3993 30.4731C68.4073 30.709 68.3257 30.9392 68.171 31.1174L65.241 34.4739C65.1539 34.5741 65.0464 34.6545 64.9256 34.7097C64.8049 34.7649 64.6737 34.7936 64.541 34.7939" fill="#E63946"/>
<path d="M54.6521 50.2877C54.4323 50.2886 54.2193 50.212 54.0505 50.0713C53.8817 49.9307 53.7679 49.7351 53.729 49.5188C53.6902 49.3026 53.7289 49.0795 53.8383 48.889C53.9477 48.6984 54.1208 48.5525 54.3271 48.477C55.6276 48.0009 56.7504 47.1369 57.5437 46.0019C58.337 44.8669 58.7624 43.5156 58.7624 42.1309C58.7624 40.7462 58.337 39.395 57.5437 38.2599C56.7504 37.1249 55.6276 36.2609 54.3271 35.7849C54.0961 35.6985 53.9086 35.5244 53.8054 35.3005C53.7022 35.0766 53.6916 34.8209 53.776 34.5893C53.8604 34.3576 54.0329 34.1686 54.256 34.0635C54.4791 33.9584 54.7347 33.9457 54.9671 34.0281C56.627 34.6361 58.0602 35.7392 59.0726 37.1881C60.0851 38.637 60.6281 40.3619 60.6281 42.1294C60.6281 43.897 60.0851 45.6219 59.0726 47.0708C58.0602 48.5197 56.627 49.6228 54.9671 50.2307C54.8635 50.2682 54.7542 50.2875 54.6441 50.2877" fill="#1D3557"/>
<path d="M49.3491 50.2877C49.24 50.2877 49.1316 50.2684 49.0291 50.2307C47.3692 49.6228 45.9361 48.5197 44.9236 47.0708C43.9111 45.6219 43.3682 43.897 43.3682 42.1294C43.3682 40.3619 43.9111 38.637 44.9236 37.1881C45.9361 35.7392 47.3692 34.6361 49.0291 34.0281C49.2616 33.9457 49.5171 33.9584 49.7402 34.0635C49.9633 34.1686 50.1358 34.3576 50.2202 34.5893C50.3046 34.8209 50.2941 35.0766 50.1909 35.3005C50.0877 35.5244 49.9001 35.6985 49.6691 35.7849C48.3691 36.2614 47.2468 37.1255 46.4539 38.2605C45.661 39.3955 45.2358 40.7465 45.2358 42.1309C45.2358 43.5154 45.661 44.8664 46.4539 46.0014C47.2468 47.1363 48.3691 48.0005 49.6691 48.477C49.8751 48.5524 50.0479 48.6979 50.1573 48.8879C50.2667 49.0779 50.3058 49.3004 50.2676 49.5163C50.2294 49.7323 50.1165 49.9279 49.9486 50.0689C49.7807 50.2099 49.5685 50.2874 49.3491 50.2877" fill="#1D3557"/>
<path d="M54.324 38.7874C54.1106 38.7874 53.9037 38.7142 53.7378 38.5801C53.5718 38.446 53.4568 38.2591 53.412 38.0505L52.68 34.663C52.628 34.4209 52.6742 34.1681 52.8085 33.9601C52.9427 33.752 53.154 33.6057 53.396 33.5532L57.58 32.6483C57.8192 32.6039 58.0663 32.6543 58.2688 32.7891C58.4714 32.9238 58.6135 33.1321 58.6649 33.3699C58.7163 33.6076 58.673 33.856 58.5442 34.0624C58.4154 34.2687 58.2112 34.4168 57.975 34.4751L54.704 35.181L55.238 37.6566C55.2639 37.7765 55.2659 37.9003 55.2439 38.0209C55.2219 38.1416 55.1764 38.2567 55.1099 38.3598C55.0434 38.4628 54.9573 38.5518 54.8564 38.6216C54.7555 38.6913 54.6419 38.7405 54.522 38.7664C54.4562 38.7803 54.3892 38.7873 54.322 38.7874" fill="#1D3557"/>
<path d="M45.4789 51.3678C45.24 51.3664 45.0108 51.2735 44.8382 51.1083C44.6657 50.9431 44.5631 50.718 44.5514 50.4795C44.5398 50.2409 44.62 50.0069 44.7756 49.8257C44.9312 49.6444 45.1503 49.5297 45.3879 49.505L48.7169 49.1721L48.4649 46.6535C48.4403 46.4068 48.5146 46.1605 48.6716 45.9687C48.8285 45.7769 49.0553 45.6553 49.3019 45.6306C49.5486 45.606 49.7949 45.6803 49.9868 45.8372C50.1786 45.9942 50.3003 46.2209 50.3249 46.4675L50.6689 49.916C50.6932 50.1623 50.6187 50.4082 50.4617 50.5996C50.3048 50.791 50.0783 50.9123 49.8319 50.9368L45.5719 51.3618C45.541 51.3636 45.5099 51.3636 45.4789 51.3618" fill="#1D3557"/>
<defs>
<filter id="filter0_d_230_57" x="0" y="0" width="104" height="104" filterUnits="userSpaceOnUse" color-interpolation-filters="sRGB">
<feFlood flood-opacity="0" result="BackgroundImageFix"/>
<feColorMatrix in="SourceAlpha" type="matrix" values="0 0 0 0 0 0 0 0 0 0 0 0 0 0 0 0 0 0 127 0" result="hardAlpha"/>
<feOffset dy="10"/>
<feGaussianBlur stdDeviation="10"/>
<feComposite in2="hardAlpha" operator="out"/>
<feColorMatrix type="matrix" values="0 0 0 0 0.1575 0 0 0 0 0.3486 0 0 0 0 0.525 0 0 0 0.16 0"/>
<feBlend mode="normal" in2="BackgroundImageFix" result="effect1_dropShadow_230_57"/>
<feBlend mode="normal" in="SourceGraphic" in2="effect1_dropShadow_230_57" result="shape"/>
</filter>
</defs>
</svg>
